<svg width="70" height="71" viewBox="0 0 70 71" fill="none" xmlns="http://www.w3.org/2000/svg">
<circle cx="35" cy="35.4811" r="35" fill="#00B960"/>
<g clip-path="url(#clip0)">
<path d="M39.9984 31.1L37.0482 30.2776L35.3545 27.7261C34.963 27.1193 34.0373 27.1195 33.6459 27.7261L31.9521 30.2776L29.0019 31.1C28.671 31.1923 28.4082 31.4441 28.3021 31.7709C28.1959 32.0976 28.2605 32.4558 28.474 32.725L30.3773 35.1243L30.2479 38.1841C30.2334 38.5273 30.3917 38.855 30.6697 39.0569C30.9475 39.2588 31.3081 39.3082 31.6302 39.1883L34.5002 38.1197L37.3703 39.1883C37.6924 39.3082 38.053 39.2588 38.3308 39.0569C38.6088 38.855 38.7671 38.5273 38.7526 38.1841L38.6232 35.1243L40.5265 32.725C40.74 32.4558 40.8045 32.0976 40.6984 31.7709C40.5921 31.4441 40.3293 31.1923 39.9984 31.1ZM36.7792 34.1489C36.6262 34.3419 36.5477 34.5834 36.5581 34.8295L36.6384 36.7275L34.858 36.0646C34.6272 35.9787 34.3732 35.9787 34.1424 36.0646L32.362 36.7275L32.4423 34.8295C32.4527 34.5834 32.3742 34.3419 32.2211 34.1489L31.0405 32.6606L32.8705 32.1505C33.1077 32.0843 33.3133 31.9351 33.4494 31.7299L34.5002 30.1472L35.5509 31.7299C35.6872 31.935 35.8926 32.0843 36.1298 32.1505L37.9599 32.6606L36.7792 34.1489Z" fill="white"/>
<path d="M51.6996 45.5182L47.7005 41.5186C53.7064 31.5553 46.203 18.3671 34.5001 18.4818C22.7988 18.3666 15.2927 31.5575 21.3001 41.5186L17.3009 45.5182C17.0496 45.7695 16.9463 46.1329 17.028 46.4788C17.1096 46.8247 17.3646 47.1036 17.7017 47.216L21.8748 48.6069L23.2657 52.78C23.3781 53.1171 23.657 53.372 24.0029 53.4537C24.3488 53.5353 24.7122 53.4321 24.9635 53.1808L29.7971 48.3476C32.7342 49.3285 36.2662 49.3285 39.2033 48.3476L44.037 53.1808C44.2883 53.4321 44.6518 53.5353 44.9977 53.4537C45.3435 53.372 45.6224 53.1171 45.7348 52.78L47.1257 48.6069L51.2988 47.216C51.636 47.1036 51.8909 46.8247 51.9725 46.4788C52.0542 46.1329 51.9509 45.7695 51.6996 45.5182ZM24.687 50.5576L23.6581 47.4718C23.5561 47.1656 23.3158 46.9254 23.0097 46.8233L19.9241 45.7947L22.4748 43.2442C23.8875 45.0326 25.6984 46.5007 27.734 47.5106L24.687 50.5576ZM34.5003 47.0372C27.1929 47.0372 21.2479 41.0923 21.2479 33.7848C21.9759 16.2037 47.0273 16.2089 47.7527 33.785C47.7526 41.0923 41.8077 47.0372 34.5003 47.0372ZM45.9908 46.8233C45.6847 46.9254 45.4444 47.1656 45.3424 47.4718L44.3136 50.5576L41.2667 47.5106C43.3023 46.5008 45.1132 45.0326 46.5259 43.2442L49.0765 45.7947L45.9908 46.8233Z" fill="white"/>
<path d="M34.5001 22.8748C28.4843 22.8748 23.5901 27.769 23.5901 33.7848C24.1894 48.2583 44.813 48.2542 45.4101 33.7847C45.41 27.769 40.5158 22.8748 34.5001 22.8748ZM34.5001 42.644C29.615 42.644 25.6408 38.6698 25.6408 33.7848C26.1275 22.0318 42.8745 22.0352 43.3593 33.7849C43.3593 38.6698 39.3851 42.644 34.5001 42.644Z" fill="white"/>
</g>
<defs>
<clipPath id="clip0">
<rect width="35" height="35" fill="white" transform="translate(17 18.4811)"/>
</clipPath>
</defs>
</svg>
