<svg width="70" height="71" viewBox="0 0 70 71" fill="none" xmlns="http://www.w3.org/2000/svg">
<circle cx="35" cy="35.4811" r="35" fill="#00B960"/>
<g clip-path="url(#clip0)">
<path d="M50.5162 32.7205C50.1273 30.9279 49.4139 29.2044 48.4235 27.6644L49.9162 25.7452L45.7359 21.5649L43.8167 23.0576C42.2769 22.0672 40.5534 21.3539 38.7607 20.9649L38.4593 18.4811H32.5407L32.2394 20.9648C30.4467 21.3538 28.7232 22.0671 27.1833 23.0575L25.2641 21.5648L21.0838 25.7452L22.5765 27.6643C21.5861 29.2043 20.8728 30.9278 20.4838 32.7204L18 33.0218V38.9404L20.4838 39.2417C20.8727 41.0343 21.5861 42.7577 22.5765 44.2976L21.0838 46.2168L25.2641 50.3973L27.1833 48.9046C28.7232 49.8949 30.4467 50.6083 32.2394 50.9972L32.5407 53.4811H38.4593L38.7607 50.9973C40.5534 50.6083 42.2769 49.895 43.8167 48.9046L45.7359 50.3973L49.9162 46.2169L48.4235 44.2977C49.4139 42.7578 50.1273 41.0343 50.5162 39.2418L53 38.9404V33.0218L50.5162 32.7205ZM50.9492 37.1234L48.7619 37.3887L48.6374 38.1481C48.3035 40.1861 47.525 42.0675 46.3234 43.7401L45.8761 44.3628L47.186 46.0468L45.5658 47.6669L43.8818 46.3571L43.2592 46.8044C41.5867 48.0059 39.7052 48.7844 37.6671 49.1184L36.9077 49.2428L36.6423 51.4303H34.3577L34.0923 49.2429L33.3329 49.1185C31.2948 48.7846 29.4134 48.006 27.7408 46.8045L27.1182 46.3572L25.4342 47.667L23.814 46.0469L25.1239 44.3629L24.6766 43.7403C23.475 42.0676 22.6965 40.1862 22.3626 38.1483L22.2381 37.3889L20.0508 37.1234V34.8388L22.2382 34.5734L22.3626 33.814C22.6965 31.7761 23.475 29.8946 24.6767 28.2218L25.1239 27.5992L23.8141 25.9152L25.4342 24.2951L27.1183 25.6049L27.7409 25.1577C29.4134 23.9561 31.2949 23.1776 33.3329 22.8436L34.0924 22.7192L34.3577 20.5319H36.6423L36.9077 22.7192L37.6671 22.8436C39.7052 23.1776 41.5867 23.9561 43.2592 25.1577L43.8818 25.6049L45.5659 24.2951L47.186 25.9152L45.8761 27.5992L46.3233 28.2218C47.5249 29.8946 48.3034 31.7761 48.6374 33.814L48.7618 34.5734L50.9492 34.8388V37.1234Z" fill="white"/>
<path d="M31.3984 26.7526C30.0617 26.7526 28.9219 27.6099 28.4986 28.8033H26.2715V30.8541H28.4986C28.9219 32.0476 30.0617 32.9049 31.3984 32.9049C32.7352 32.9049 33.875 32.0476 34.2982 30.8541H44.7285V28.8033H34.2982C33.875 27.6099 32.7352 26.7526 31.3984 26.7526ZM31.3984 30.8541C30.833 30.8541 30.373 30.3941 30.373 29.8287C30.373 29.2633 30.833 28.8033 31.3984 28.8033C31.9638 28.8033 32.4238 29.2633 32.4238 29.8287C32.4238 30.3941 31.9638 30.8541 31.3984 30.8541Z" fill="white"/>
<path d="M39.6016 32.9049C38.2648 32.9049 37.125 33.7622 36.7018 34.9557H26.2715V37.0065H36.7018C37.125 38.2 38.2648 39.0573 39.6016 39.0573C40.9383 39.0573 42.0781 38.2 42.5014 37.0065H44.7285V34.9557H42.5014C42.0781 33.7622 40.9383 32.9049 39.6016 32.9049ZM39.6016 37.0065C39.0362 37.0065 38.5762 36.5465 38.5762 35.9811C38.5762 35.4157 39.0362 34.9557 39.6016 34.9557C40.167 34.9557 40.627 35.4157 40.627 35.9811C40.627 36.5465 40.167 37.0065 39.6016 37.0065Z" fill="white"/>
<path d="M31.3984 39.0573C30.0617 39.0573 28.9219 39.9145 28.4986 41.108H26.2715V43.1588H28.4986C28.9219 44.3523 30.0617 45.2096 31.3984 45.2096C32.7352 45.2096 33.875 44.3523 34.2982 43.1588H44.7285V41.108H34.2982C33.875 39.9145 32.7352 39.0573 31.3984 39.0573ZM31.3984 43.1588C30.833 43.1588 30.373 42.6988 30.373 42.1334C30.373 41.568 30.833 41.108 31.3984 41.108C31.9638 41.108 32.4238 41.568 32.4238 42.1334C32.4238 42.6988 31.9638 43.1588 31.3984 43.1588Z" fill="white"/>
</g>
<defs>
<clipPath id="clip0">
<rect width="35" height="35" fill="white" transform="translate(18 18.4811)"/>
</clipPath>
</defs>
</svg>
