<svg width="70" height="71" viewBox="0 0 70 71" fill="none" xmlns="http://www.w3.org/2000/svg">
<circle cx="35" cy="35.4813" r="35" fill="#00B960"/>
<g clip-path="url(#clip0)">
<path d="M18.1324 38.426L22.6548 42.9551V46.8251L16.1972 40.3579C14.6022 38.76 14.6022 36.1603 16.1972 34.5624L33.2454 17.4813H49.9985V32.859C49.6498 32.6128 49.2717 32.3858 48.8636 32.1821C48.3686 31.9345 47.8316 31.7217 47.2641 31.5457V20.2157H34.3797L18.1324 36.494C17.6007 37.0268 17.6007 37.8933 18.1324 38.426ZM40.1572 25.9579C40.1572 26.713 40.7695 27.3251 41.5243 27.3251C42.2795 27.3251 42.8915 26.713 42.8915 25.9579C42.8915 25.2027 42.2795 24.5907 41.5243 24.5907C40.7692 24.5907 40.1572 25.203 40.1572 25.9579ZM49.9932 37.9891H50.0009V48.3798C50.0009 49.6551 49.1638 50.7761 47.6433 51.536C46.4243 52.1457 44.8339 52.4813 43.165 52.4813C41.496 52.4813 39.9056 52.1457 38.6866 51.536C38.3147 51.3502 37.9841 51.1427 37.6962 50.9165C37.4084 51.1427 37.0778 51.3502 36.7058 51.536C35.4868 52.1457 33.8964 52.4813 32.2275 52.4813C30.5585 52.4813 28.9681 52.1457 27.7491 51.536C26.2289 50.7761 25.3915 49.6551 25.3915 48.3798V43.0477H25.3929C25.3923 43.025 25.3915 43.0023 25.3915 42.9794C25.3915 41.704 26.2289 40.5831 27.7491 39.8231C28.9681 39.2135 30.5585 38.8778 32.2275 38.8778C33.7226 38.8778 35.1597 39.1609 36.329 39.6784V37.9891H36.3368C36.332 37.9213 36.329 37.853 36.329 37.7841C36.329 36.5087 37.1664 35.3877 38.6866 34.6278C39.9056 34.0182 41.496 33.6825 43.165 33.6825C44.8339 33.6825 46.4243 34.0182 47.6433 34.6278C49.1638 35.3877 50.0009 36.5087 50.0009 37.7841C50.0009 37.853 49.998 37.9213 49.9932 37.9891ZM39.0634 37.7841C39.0634 37.8313 39.2105 38.1453 39.9094 38.4946C40.7438 38.912 41.9305 39.1512 43.165 39.1512C44.3994 39.1512 45.5861 38.912 46.4206 38.4946C47.1194 38.1453 47.2665 37.8313 47.2665 37.7841C47.2665 37.7368 47.1194 37.4228 46.4206 37.0735C45.5861 36.6561 44.3994 36.4169 43.165 36.4169C41.9305 36.4169 40.7438 36.6561 39.9094 37.0735C39.2105 37.4228 39.0634 37.7368 39.0634 37.7841ZM28.1259 42.9794C28.1259 43.0266 28.273 43.3407 28.9719 43.6899C29.8063 44.1073 30.993 44.3466 32.2275 44.3466C33.4769 44.3466 34.6697 44.1166 35.5002 43.7158C36.1763 43.3895 36.329 43.0894 36.329 43.0477C36.329 42.9658 36.1245 42.6349 35.4663 42.2944C34.6283 41.8608 33.4478 41.6122 32.2275 41.6122C30.993 41.6122 29.8063 41.8514 28.9719 42.2688C28.273 42.6181 28.1259 42.9321 28.1259 42.9794ZM36.329 48.3798V46.3407C35.2091 46.8118 33.8045 47.0809 32.2275 47.0809C30.7252 47.0809 29.2875 46.8083 28.1259 46.3092V48.3798C28.1259 48.427 28.273 48.7411 28.9719 49.0903C29.8063 49.5077 30.993 49.7469 32.2275 49.7469C33.4619 49.7469 34.6486 49.5077 35.4831 49.0903C36.1819 48.7411 36.329 48.427 36.329 48.3798ZM47.2665 48.3798V46.3092C46.1052 46.8083 44.6673 47.0809 43.165 47.0809C41.6627 47.0809 40.225 46.8083 39.0634 46.3092V48.3798C39.0634 48.427 39.2105 48.7411 39.9094 49.0903C40.7438 49.5077 41.9305 49.7469 43.165 49.7469C44.3994 49.7469 45.5861 49.5077 46.4206 49.0903C47.1194 48.7411 47.2665 48.427 47.2665 48.3798ZM47.2665 42.9794V41.1139C46.1052 41.613 44.6673 41.8856 43.165 41.8856C41.6627 41.8856 40.225 41.613 39.0634 41.1139V42.9794C39.0634 43.0266 39.2105 43.3407 39.9094 43.6899C40.7438 44.1073 41.9305 44.3466 43.165 44.3466C44.3994 44.3466 45.5861 44.1073 46.4206 43.6899C47.1194 43.3407 47.2665 43.0266 47.2665 42.9794Z" fill="white"/>
</g>
<defs>
<clipPath id="clip0">
<rect width="35" height="35" fill="white" transform="translate(15 17.4813)"/>
</clipPath>
</defs>
</svg>
