<svg width="70" height="71" viewBox="0 0 70 71" fill="none" xmlns="http://www.w3.org/2000/svg">
<circle cx="35.0003" cy="35.4814" r="35" fill="#00B960"/>
<g clip-path="url(#clip0)">
<path d="M53.0003 38.1035C53.0003 36.8704 52.3501 35.7865 51.3749 35.1756C51.7469 34.6247 51.9645 33.9611 51.9645 33.2479C51.9645 31.3437 50.4152 29.7947 48.511 29.7947H39.9648L41.1942 26.6672C41.7384 25.3409 42.0142 23.9414 42.0142 22.5077C42.0142 20.2262 40.1581 18.3701 37.8769 18.3701H36.6921C35.7118 18.3701 34.8733 19.07 34.6984 20.0345L34.1449 23.084L27.7033 30.5359H26.5305V28.5784H18.0003V51.5645H26.5305V49.7289L30.6113 51.2681H46.2661C48.1703 51.2681 49.7193 49.719 49.7193 47.8148C49.7193 47.2271 49.5714 46.6736 49.3113 46.1886C50.6147 45.6944 51.5437 44.4335 51.5437 42.9592C51.5437 42.3191 51.368 41.7197 51.0633 41.2054C52.2094 40.6427 53.0003 39.4641 53.0003 38.1035ZM24.4798 49.5137H20.0511V30.6291H24.4798V49.5137ZM48.0904 44.3616H41.1285V46.4124H46.2661C47.0394 46.4124 47.6685 47.0415 47.6685 47.8148C47.6685 48.5882 47.0394 49.2173 46.2661 49.2173H30.9851L26.5305 47.5371V32.5867H28.6414L36.0627 24.0015L36.7126 20.4209H37.8769C39.0275 20.4209 39.9634 21.3571 39.9634 22.5077C39.9634 23.6754 39.7383 24.8151 39.2943 25.895L36.9551 31.8455H48.511C49.2846 31.8455 49.9137 32.4746 49.9137 33.2479C49.9137 34.0212 49.2846 34.6503 48.511 34.6503H43.117V36.7011H49.5471C50.3204 36.7011 50.9495 37.3302 50.9495 38.1035C50.9495 38.8769 50.3204 39.506 49.5471 39.506H42.9528V41.5568H48.0904C48.8638 41.5568 49.4929 42.1859 49.4929 42.9592C49.4929 43.7325 48.8638 44.3616 48.0904 44.3616Z" fill="white"/>
</g>
<defs>
<clipPath id="clip0">
<rect width="35" height="35" fill="white" transform="translate(18.0003 17.4814)"/>
</clipPath>
</defs>
</svg>
