<svg width="70" height="71" viewBox="0 0 70 71" fill="none" xmlns="http://www.w3.org/2000/svg">
<circle cx="35.0002" cy="35.4814" r="35" fill="#00B960"/>
<g clip-path="url(#clip0)">
<path d="M47.8303 28.2871V27.7783C47.8303 22.652 43.6904 18.4814 38.6018 18.4814C36.0513 18.4814 33.7392 19.5293 32.0671 21.2201C31.233 20.8128 30.3168 20.6006 29.3733 20.6006C25.9809 20.6006 23.2209 23.3605 23.2209 26.7529C23.2209 28.3273 23.8157 29.7652 24.7918 30.8545H17.0002V41.1077H24.7918C23.8157 42.1977 23.2209 43.6356 23.2209 45.21C23.2209 48.6024 25.9809 51.3623 29.3733 51.3623C30.3168 51.3623 31.233 51.15 32.0671 50.7428C33.7392 52.4336 36.0513 53.4814 38.6018 53.4814C43.6904 53.4814 47.8303 49.3109 47.8303 44.1846V43.6758C50.3412 42.0217 52.0002 39.1904 52.0002 35.9814C52.0002 32.7725 50.3412 29.9412 47.8303 28.2871ZM42.7034 43.1592H40.6526V45.21H42.7034C43.7743 45.21 44.8032 45.0287 45.7614 44.6964C45.5004 48.454 42.3891 51.4307 38.6018 51.4307C34.644 51.4307 31.4241 48.1801 31.4241 44.1846H29.3733C29.3733 45.9767 29.8798 47.6518 30.7554 49.073C30.3159 49.2302 29.8499 49.3115 29.3733 49.3115C27.1117 49.3115 25.2717 47.4716 25.2717 45.21C25.2717 42.9484 27.1117 41.1084 29.3733 41.1084H32.4495C33.0149 41.1084 33.4749 41.5684 33.4749 42.1338H35.5256C35.5256 40.4376 34.1457 39.0576 32.4495 39.0576H19.051V32.9053H32.4495C34.1457 32.9053 35.5256 31.5253 35.5256 29.8291H33.4749C33.4749 30.3945 33.0149 30.8545 32.4495 30.8545H29.3733C27.1117 30.8545 25.2717 29.0145 25.2717 26.7529C25.2717 24.4913 27.1117 22.6514 29.3733 22.6514C29.8499 22.6514 30.3159 22.7326 30.7554 22.8899C29.8798 24.3111 29.3733 25.9861 29.3733 27.7783H31.4241C31.4241 23.7828 34.644 20.5322 38.6018 20.5322C42.3891 20.5322 45.5004 23.5089 45.7614 27.2664C44.8032 26.9342 43.7743 26.7529 42.7034 26.7529H40.6526V28.8037H42.7034C46.6988 28.8037 49.9495 32.0236 49.9495 35.9814C49.9495 39.9392 46.6988 43.1592 42.7034 43.1592Z" fill="white"/>
</g>
<defs>
<clipPath id="clip0">
<rect width="35" height="35" fill="white" transform="translate(17.0002 18.4814)"/>
</clipPath>
</defs>
</svg>
