<svg width="40" height="40" viewBox="0 0 40 40" fill="none" xmlns="http://www.w3.org/2000/svg">
<g clip-path="url(#clip0)">
<path d="M19.319 16.7443H21.9768V18.0732H19.319V16.7443Z" fill="#00B960"/>
<path d="M27.2924 16.7443H29.9502V18.0732H27.2924V16.7443Z" fill="#00B960"/>
<path d="M27.2924 22.06H29.9502V23.3889H27.2924V22.06Z" fill="#00B960"/>
<path d="M19.319 22.06H21.9768V23.3889H19.319V22.06Z" fill="#00B960"/>
<path d="M19.319 27.3755H21.9768V28.7044H19.319V27.3755Z" fill="#00B960"/>
<path d="M27.2924 27.3755H29.9502V28.7044H27.2924V27.3755Z" fill="#00B960"/>
<path d="M26.6279 36.0134H27.9569V37.3423H26.6279V36.0134Z" fill="#00B960"/>
<path d="M37.9237 10.3655L19.9835 0L2.04331 10.3655V26.7111H3.37222V11.1627L19.9835 1.59462L36.5948 11.1627V38.6712H29.9503C30.2825 38.2725 30.4817 37.8072 30.5482 37.3423H33.2725C34.4019 37.3423 35.2659 36.4783 35.2659 35.349V32.0267C35.2659 30.897 34.4019 30.0334 33.2725 30.0334V16.0799C33.2725 15.0167 32.4086 14.0865 31.3457 14.0865H17.9236C16.8605 14.0865 15.9968 15.0167 15.9968 16.0799V30.0334H14.6679V18.7377H13.339V20.0666H10.1494C9.41879 20.0666 8.75434 20.465 8.42211 21.1294L3.63793 30.0995C3.43873 30.3656 3.37222 30.6978 3.37222 31.03V35.349C3.37222 36.4783 4.23587 37.3423 5.36557 37.3423H6.76098C6.89368 37.8072 7.09321 38.2725 7.35893 38.6712H0.0499573V40.0001H39.9171V38.6712H37.9237V10.3655ZM13.2725 37.3423H24.0367C24.1694 37.8072 24.369 38.2725 24.6347 38.6712H12.6745C12.9403 38.2725 13.1395 37.8072 13.2725 37.3423ZM25.2991 36.6779C25.2991 35.5482 26.1628 34.6845 27.2925 34.6845C28.4219 34.6845 29.2858 35.5482 29.2858 36.6779C29.2858 37.8072 28.4219 38.6712 27.2925 38.6712C26.1628 38.6712 25.2991 37.8072 25.2991 36.6779ZM25.2991 30.0334V26.0466H31.9436V30.0334H25.2991ZM25.2991 20.731H31.9436V24.7177H25.2991V20.731ZM23.9702 24.7177H17.3257V20.731H23.9702V24.7177ZM31.9436 16.0799V19.4021H25.2991V15.4154H31.3457C31.6779 15.4154 31.9436 15.7476 31.9436 16.0799ZM17.9236 15.4154H23.9702V19.4021H17.3257V16.0799C17.3257 15.7476 17.5914 15.4154 17.9236 15.4154ZM17.3257 26.0466H23.9702V30.0334H17.3257V26.0466ZM9.55149 21.7277C9.68451 21.5282 9.88371 21.3955 10.1494 21.3955H13.339V30.0334H5.16604L9.55149 21.7277ZM4.70112 35.349V31.3623H33.2725C33.6713 31.3623 33.937 31.628 33.937 32.0267V35.349C33.937 35.7474 33.6713 36.0134 33.2725 36.0134H30.5482C30.1495 34.2193 28.4219 33.0234 26.628 33.4218C25.2991 33.6878 24.3024 34.6845 24.0367 36.0134H13.2725C12.8737 34.2193 11.1461 33.0234 9.35228 33.4218C8.02338 33.6878 7.0267 34.6845 6.76098 36.0134H5.36557C4.96684 36.0134 4.70112 35.7474 4.70112 35.349ZM8.02338 36.6779C8.02338 35.5482 8.88704 34.6845 10.0167 34.6845C11.1461 34.6845 12.0101 35.5482 12.0101 36.6779C12.0101 37.8072 11.1461 38.6712 10.0167 38.6712C8.88704 38.6712 8.02338 37.8072 8.02338 36.6779Z" fill="#00B960"/>
<path d="M9.35226 36.0134H10.6812V37.3423H9.35226V36.0134Z" fill="#00B960"/>
<path d="M23.9702 6.37882L19.9834 3.98672L15.9967 6.37882V12.0932H23.9702V6.37882ZM17.3256 7.17596L19.319 5.98008V10.7643H17.3256V7.17596ZM22.6413 10.7643H20.6479V5.98008L22.6413 7.17596V10.7643Z" fill="#00B960"/>
</g>
<defs>
<clipPath id="clip0">
<rect width="40" height="40" fill="white"/>
</clipPath>
</defs>
</svg>
