<svg width="40" height="40" viewBox="0 0 40 40" fill="none" xmlns="http://www.w3.org/2000/svg">
<path d="M37.5 37.5V8.75002C37.5 8.62579 37.463 8.50437 37.3937 8.40127C37.3243 8.29818 37.2259 8.21807 37.1108 8.17118L20.2358 1.29618C20.0846 1.23469 19.9154 1.23469 19.7642 1.29618L2.88918 8.17118C2.77413 8.21807 2.67566 8.29818 2.60635 8.40127C2.53703 8.50437 2.50001 8.62579 2.5 8.75002V37.5H1.25V38.75H38.75V37.5H37.5ZM3.75 9.17025L20 2.54992L36.25 9.17025V37.5H35V10.625C35 10.4593 34.9341 10.3003 34.8169 10.1831C34.6997 10.0659 34.5408 10 34.375 10H5.625C5.45924 10 5.30028 10.0659 5.18307 10.1831C5.06586 10.3003 5.00001 10.4593 5 10.625V37.5H3.75V9.17025ZM9.375 19.375V14.375C9.37519 14.2093 9.4411 14.0505 9.55827 13.9333C9.67544 13.8161 9.8343 13.7502 10 13.75V15.625H11.25V13.75H15C15.1657 13.7502 15.3246 13.8161 15.4417 13.9333C15.5589 14.0505 15.6248 14.2093 15.625 14.375V19.375C15.6248 19.5407 15.5589 19.6996 15.4417 19.8168C15.3246 19.9339 15.1657 19.9998 15 20H10C9.8343 19.9998 9.67544 19.9339 9.55827 19.8168C9.4411 19.6996 9.37519 19.5407 9.375 19.375ZM19.375 15.625V13.75H22.5C22.6657 13.7502 22.8246 13.8161 22.9417 13.9333C23.0589 14.0505 23.1248 14.2093 23.125 14.375V19.375C23.1248 19.5407 23.0589 19.6996 22.9417 19.8168C22.8246 19.9339 22.6657 19.9998 22.5 20H17.5C17.3343 19.9998 17.1754 19.9339 17.0583 19.8168C16.9411 19.6996 16.8752 19.5407 16.875 19.375V14.375C16.8752 14.2093 16.9411 14.0505 17.0583 13.9333C17.1754 13.8161 17.3343 13.7502 17.5 13.75H18.125V15.625H19.375ZM26.875 15.625V13.75H30C30.1657 13.7502 30.3246 13.8161 30.4417 13.9333C30.5589 14.0505 30.6248 14.2093 30.625 14.375V19.375C30.6248 19.5407 30.5589 19.6996 30.4417 19.8168C30.3246 19.9339 30.1657 19.9998 30 20H25C24.8343 19.9998 24.6754 19.9339 24.5583 19.8168C24.4411 19.6996 24.3752 19.5407 24.375 19.375V14.375C24.3752 14.2093 24.4411 14.0505 24.5583 13.9333C24.6754 13.8161 24.8343 13.7502 25 13.75H25.625V15.625H26.875ZM9.375 34.375V29.375C9.37519 29.2093 9.4411 29.0505 9.55827 28.9333C9.67544 28.8161 9.8343 28.7502 10 28.75V30.625H11.25V28.75H15C15.1657 28.7502 15.3246 28.8161 15.4417 28.9333C15.5589 29.0505 15.6248 29.2093 15.625 29.375V34.375C15.6248 34.5407 15.5589 34.6996 15.4417 34.8168C15.3246 34.9339 15.1657 34.9998 15 35H10C9.8343 34.9998 9.67544 34.9339 9.55827 34.8168C9.4411 34.6996 9.37519 34.5407 9.375 34.375ZM9.375 26.875V21.875C9.37519 21.7093 9.4411 21.5505 9.55827 21.4333C9.67544 21.3161 9.8343 21.2502 10 21.25V23.125H11.25V21.25H15C15.1657 21.2502 15.3246 21.3161 15.4417 21.4333C15.5589 21.5505 15.6248 21.7093 15.625 21.875V26.875C15.6248 27.0407 15.5589 27.1996 15.4417 27.3168C15.3246 27.4339 15.1657 27.4998 15 27.5H10C9.8343 27.4998 9.67544 27.4339 9.55827 27.3168C9.4411 27.1996 9.37519 27.0407 9.375 26.875ZM19.375 23.125V21.25H22.5C22.6657 21.2502 22.8246 21.3161 22.9417 21.4333C23.0589 21.5505 23.1248 21.7093 23.125 21.875V26.875C23.1248 27.0407 23.0589 27.1996 22.9417 27.3168C22.8246 27.4339 22.6657 27.4998 22.5 27.5H17.5C17.3343 27.4998 17.1754 27.4339 17.0583 27.3168C16.9411 27.1996 16.8752 27.0407 16.875 26.875V21.875C16.8752 21.7093 16.9411 21.5505 17.0583 21.4333C17.1754 21.3161 17.3343 21.2502 17.5 21.25H18.125V23.125H19.375ZM26.875 23.125V21.25H30C30.1657 21.2502 30.3246 21.3161 30.4417 21.4333C30.5589 21.5505 30.6248 21.7093 30.625 21.875V26.875C30.6248 27.0407 30.5589 27.1996 30.4417 27.3168C30.3246 27.4339 30.1657 27.4998 30 27.5H25C24.8343 27.4998 24.6754 27.4339 24.5583 27.3168C24.4411 27.1996 24.3752 27.0407 24.375 26.875V21.875C24.3752 21.7093 24.4411 21.5505 24.5583 21.4333C24.6754 21.3161 24.8343 21.2502 25 21.25H25.625V23.125H26.875ZM16.875 34.375V29.375C16.8752 29.2093 16.9411 29.0505 17.0583 28.9333C17.1754 28.8161 17.3343 28.7502 17.5 28.75H18.125V30.625H19.375V28.75H22.5C22.6657 28.7502 22.8246 28.8161 22.9417 28.9333C23.0589 29.0505 23.1248 29.2093 23.125 29.375V34.375C23.1248 34.5407 23.0589 34.6996 22.9417 34.8168C22.8246 34.9339 22.6657 34.9998 22.5 35H17.5C17.3343 34.9998 17.1754 34.9339 17.0583 34.8168C16.9411 34.6996 16.8752 34.5407 16.875 34.375ZM24.375 34.375V29.375C24.3752 29.2093 24.4411 29.0505 24.5583 28.9333C24.6754 28.8161 24.8343 28.7502 25 28.75H25.625V30.625H26.875V28.75H30C30.1657 28.7502 30.3246 28.8161 30.4417 28.9333C30.5589 29.0505 30.6248 29.2093 30.625 29.375V34.375C30.6248 34.5407 30.5589 34.6996 30.4417 34.8168C30.3246 34.9339 30.1657 34.9998 30 35H25C24.8343 34.9998 24.6754 34.9339 24.5583 34.8168C24.4411 34.6996 24.3752 34.5407 24.375 34.375ZM9.375 36.25H30.625V37.5H9.375V36.25ZM31.6917 35.1829C31.8127 34.9308 31.8753 34.6547 31.875 34.375V29.375C31.8753 28.9135 31.7047 28.4682 31.396 28.125C31.7047 27.7819 31.8753 27.3366 31.875 26.875V21.875C31.8753 21.4135 31.7047 20.9682 31.396 20.625C31.7047 20.2819 31.8753 19.8366 31.875 19.375V14.375C31.8744 13.8779 31.6767 13.4013 31.3252 13.0498C30.9737 12.6983 30.4971 12.5006 30 12.5H25C24.5385 12.4997 24.0932 12.6703 23.75 12.979C23.4068 12.6703 22.9615 12.4997 22.5 12.5H17.5C17.0385 12.4997 16.5932 12.6703 16.25 12.979C15.9068 12.6703 15.4615 12.4997 15 12.5H10C9.50289 12.5006 9.02631 12.6983 8.6748 13.0498C8.3233 13.4013 8.12557 13.8779 8.125 14.375V19.375C8.12469 19.8366 8.29532 20.2819 8.60397 20.625C8.29532 20.9682 8.12469 21.4135 8.125 21.875V26.875C8.12469 27.3366 8.29532 27.7819 8.60397 28.125C8.29532 28.4682 8.12469 28.9135 8.125 29.375V34.375C8.1247 34.6547 8.18733 34.9308 8.30826 35.1829C8.25008 35.2409 8.20393 35.3098 8.17248 35.3857C8.14103 35.4616 8.1249 35.5429 8.125 35.625V37.5H6.25V11.25H33.75V37.5H31.875V35.625C31.8751 35.5429 31.859 35.4616 31.8275 35.3857C31.7961 35.3098 31.7499 35.2409 31.6917 35.1829Z" fill="#00B960"/>
<path d="M16.875 8.75004H23.125C23.2908 8.75003 23.4497 8.68418 23.5669 8.56697C23.6841 8.44977 23.75 8.2908 23.75 8.12504V6.25004C23.75 6.12512 23.7126 6.00307 23.6425 5.89963C23.5725 5.79619 23.4731 5.71612 23.3571 5.66975L20.2321 4.41975C20.0831 4.36008 19.9169 4.36008 19.7679 4.41975L16.6429 5.66975C16.5269 5.71612 16.4275 5.79619 16.3575 5.89963C16.2874 6.00307 16.25 6.12512 16.25 6.25004V8.12504C16.25 8.2908 16.3159 8.44977 16.4331 8.56697C16.5503 8.68418 16.7092 8.75003 16.875 8.75004ZM17.5 6.67317L20 5.67318L22.5 6.67317V7.50004H17.5V6.67317Z" fill="#00B960"/>
</svg>
