<svg width="56" height="56" viewBox="0 0 56 56" fill="none" xmlns="http://www.w3.org/2000/svg">
<circle cx="28" cy="28" r="28" fill="#00B960"/>
<path d="M29.8782 27.9989L35.606 22.2836C35.8568 22.0327 35.9977 21.6925 35.9977 21.3377C35.9977 20.9829 35.8568 20.6427 35.606 20.3918C35.3552 20.1409 35.015 20 34.6602 20C34.3055 20 33.9653 20.1409 33.7145 20.3918L28 26.1204L22.2855 20.3918C22.0347 20.1409 21.6945 20 21.3398 20C20.985 20 20.6448 20.1409 20.394 20.3918C20.1432 20.6427 20.0023 20.9829 20.0023 21.3377C20.0023 21.6925 20.1432 22.0327 20.394 22.2836L26.1218 27.9989L20.394 33.7142C20.2692 33.838 20.1701 33.9853 20.1024 34.1477C20.0348 34.31 20 34.4842 20 34.66C20 34.8359 20.0348 35.01 20.1024 35.1724C20.1701 35.3347 20.2692 35.4821 20.394 35.6059C20.5178 35.7308 20.6652 35.8299 20.8275 35.8975C20.9898 35.9652 21.1639 36 21.3398 36C21.5156 36 21.6897 35.9652 21.852 35.8975C22.0144 35.8299 22.1617 35.7308 22.2855 35.6059L28 29.8773L33.7145 35.6059C33.8383 35.7308 33.9856 35.8299 34.148 35.8975C34.3103 35.9652 34.4844 36 34.6602 36C34.8361 36 35.0102 35.9652 35.1725 35.8975C35.3348 35.8299 35.4822 35.7308 35.606 35.6059C35.7308 35.4821 35.8299 35.3347 35.8976 35.1724C35.9652 35.01 36 34.8359 36 34.66C36 34.4842 35.9652 34.31 35.8976 34.1477C35.8299 33.9853 35.7308 33.838 35.606 33.7142L29.8782 27.9989Z" fill="white"/>
</svg>
