<svg width="102" height="54" viewBox="0 0 102 54" fill="none" xmlns="http://www.w3.org/2000/svg">
<g clip-path="url(#clip0)">
<path d="M16.1806 21.3818H25.6873L33.4306 33.9904L41.1739 21.3818H50.6806V53.9486H41.7362V35.2346L33.4434 47.9842H33.2389L24.9845 35.3244V53.9358H16.1806V21.3818Z" fill="white"/>
<path d="M56.5967 21.3818H65.6306V53.9486H56.5967V21.3818Z" fill="white"/>
<path d="M80.3251 37.3767L69.6684 21.3691H80.0056L85.7556 30.5402L91.544 21.3691H101.651L90.9945 37.287L102.111 53.9487H91.774L85.564 44.1235L79.3028 53.9359H69.1956L80.3251 37.3767Z" fill="white"/>
<path d="M45.0073 15.5459C44.9051 15.6998 44.8412 15.8153 44.7645 15.9179C44.7262 15.9051 44.7006 15.8922 44.6623 15.8794C44.6367 15.687 44.624 15.5074 44.6112 15.3792C44.0617 15.3407 43.5506 15.3022 42.9501 15.2509C42.3879 15.315 41.7106 15.3792 41.0334 15.4561C41.0334 15.4946 41.0462 15.5459 41.0462 15.5844C41.2251 15.5972 41.404 15.6229 41.5956 15.6485C41.404 16.1231 41.059 15.9692 40.9056 15.8025C40.5606 15.392 40.2029 15.5587 39.8067 15.6742C39.7812 15.8281 39.7684 15.9692 39.7556 16.0462C39.5895 15.9307 39.4362 15.7511 39.2829 15.7511C39.1295 15.7511 38.9762 15.9435 38.8995 15.9949C38.8356 15.9949 38.7717 15.9949 38.7079 15.9949C39.2829 15.0457 39.8451 14.0965 40.4329 13.1602C40.9184 12.3649 43.8701 8.42716 44.4195 7.65756C45.0967 6.70839 45.7612 5.75922 46.4129 4.81005C46.7579 4.29699 46.7579 3.78393 46.3362 3.28369C46.119 3.02716 45.9401 2.74497 45.6845 2.41148C45.7356 2.39865 44.7134 2.23191 44.3173 2.89889C44.3173 2.91172 44.3045 2.91171 44.2917 2.92454C44.3045 2.93737 44.3173 2.9502 44.3301 2.97585C44.0362 3.3863 43.7551 3.79675 43.4484 4.2072C41.0717 7.41385 37.839 12.2495 35.2067 16.6875C35.1812 16.6875 35.1684 16.6875 35.1428 16.6875C34.4784 16.5592 34.1206 16.7645 33.8906 17.3416C33.8779 17.3673 33.8395 17.3673 33.8012 17.3801C33.2645 16.8029 33.2134 16.8029 33.0217 17.3032C32.7917 17.1364 32.549 16.8671 32.4595 17.4443C32.434 17.5982 32.089 17.906 31.6801 17.7649C31.8973 17.5982 32.0379 17.4956 32.1784 17.3801C32.1529 17.3416 32.1401 17.2903 32.1145 17.2519C31.8334 17.2775 31.5523 17.316 31.169 17.3545C31.2967 17.0466 31.399 16.8414 31.4756 16.6362C31.9229 15.5459 32.4212 14.4685 32.7917 13.3526C33.2006 12.1084 32.6895 10.7488 31.6417 9.95352C31.0284 9.49176 30.3767 9.31219 29.6484 9.65851C29.214 9.87656 28.7795 10.0818 28.3451 10.2998C27.834 10.5692 27.2206 10.7616 27.3229 11.5697C27.1056 11.4542 26.9651 11.3773 26.8756 11.3388C26.4923 11.5953 26.1601 11.8006 25.8534 12.0571C25.5595 12.288 25.2401 12.5317 25.0356 12.8395C24.8056 13.1858 24.5884 13.468 24.1284 13.4808C23.9623 13.4808 23.7962 13.6604 23.579 13.7887C23.7579 13.9298 23.8601 13.9939 23.9367 14.058C23.6812 14.1863 23.4767 14.3787 23.2467 14.4172C22.084 14.6224 21.6112 15.8409 20.589 16.2386C20.5634 16.2514 20.5634 16.3027 20.5506 16.3283C20.3079 16.572 20.1034 16.8414 19.8223 17.021C19.5667 17.1877 19.3879 17.3416 19.4645 17.6751C19.5284 17.9445 19.4517 18.0984 19.1323 18.201C18.7234 18.3293 18.3529 18.5602 17.9823 18.7782C17.8929 18.8295 17.8417 18.9963 17.8034 19.1117C17.6756 19.458 17.5606 19.8172 17.4456 20.1635C17.3817 20.1378 17.3306 20.125 17.2667 20.0994C17.3434 19.8685 17.4328 19.6248 17.5095 19.3939C17.484 19.3811 17.4584 19.3682 17.4328 19.3554C17.2667 19.5478 17.1006 19.7402 16.9473 19.9198C16.7684 19.9326 16.6151 19.9326 16.449 19.9454C16.4106 20.0224 16.3723 20.1122 16.334 20.1891C16.4873 20.202 16.6279 20.202 16.7812 20.2148C16.5895 20.5611 16.449 20.8048 16.3212 21.0485C16.2829 21.0357 16.2573 21.0229 16.219 21.0101C16.2062 20.792 16.1934 20.574 16.1806 20.3559C16.1295 20.3431 16.0912 20.3431 16.0401 20.3302C15.7973 20.8177 15.5417 21.2922 15.299 21.7796C15.2606 21.754 15.2095 21.7283 15.1712 21.7027C15.2862 21.4975 15.4012 21.3051 15.5162 21.0998C15.4651 21.0742 15.4267 21.0357 15.3756 21.0101C15.2862 21.1127 15.1967 21.2281 15.1073 21.3307C14.9795 21.4718 14.8773 21.7155 14.7367 21.7283C14.0212 21.831 13.9445 22.344 13.8934 22.8956C13.8934 22.9212 13.8551 22.9469 13.8167 22.9854C13.7656 22.8699 13.7273 22.7545 13.689 22.6775C13.0756 23.0367 12.5262 23.4343 11.9129 23.6908C9.16563 24.8837 6.40563 26.0509 3.63285 27.1925C2.93007 27.4747 2.24007 27.8979 1.40951 27.7569C1.3584 27.744 1.19229 27.9492 1.19229 28.039C1.20507 28.2956 1.2434 28.5778 1.3584 28.783C1.5884 29.1934 1.89507 29.5526 2.13785 29.9502C2.29118 30.2067 2.44451 30.2709 2.72563 30.1554C3.68396 29.7578 4.65507 29.3986 5.6134 29.001C6.08618 28.8086 6.5334 28.5777 7.00618 28.3597C5.71563 29.9117 1.5884 35.2219 -0.136597 36.2609C-0.0343744 36.5431 0.0550689 36.7483 0.131736 36.9664C0.182847 37.0946 0.233959 37.2357 0.310626 37.3383C0.502292 37.6077 0.681182 37.8899 0.923959 38.0951C1.42229 38.5055 1.66507 38.4671 2.09951 37.9925C3.00674 36.992 6.78896 32.2077 7.74729 31.2585C9.20396 29.7963 10.7117 28.3853 12.2195 26.9744C13.5867 25.7046 15.1329 24.7298 16.9729 24.3065C17.2923 24.2295 17.4201 24.0756 17.3434 23.7549C17.3306 23.7165 17.369 23.6652 17.4201 23.5497C17.4584 23.7293 17.484 23.8319 17.4967 23.9473C18.5062 23.5882 19.5028 23.2162 20.4995 22.8827C21.5856 22.5108 22.6845 22.1901 23.7579 21.831C24.8312 21.4718 25.9045 21.0742 26.9779 20.7022C27.0162 20.7535 27.0673 20.8177 27.1056 20.869C27.0545 21.0229 26.9906 21.1896 26.9395 21.3435C26.4029 23.011 26.2623 24.6785 26.914 26.3459C27.2206 27.1412 27.6934 27.7953 28.6262 28.1545C28.6262 27.9621 28.6645 27.821 28.6134 27.7184C28.0128 26.4614 28.1534 25.1659 28.4729 23.8832C28.7412 22.8571 29.099 21.8566 29.3673 20.8305C29.4823 20.3815 29.7123 20.1122 30.1212 20.0096C31.2712 19.6889 32.4212 19.3939 33.5584 19.0732C33.6606 19.0476 33.7629 18.9963 33.8523 18.9321C33.1367 20.202 32.4979 21.4077 31.974 22.4979C31.9229 22.5877 31.859 22.6775 31.7823 22.7673C31.5395 23.3958 31.0029 24.9093 30.8751 26.2433C30.8623 26.3331 30.8751 26.4357 30.8751 26.5383C30.9517 26.7435 31.0156 26.9103 31.0923 27.0642C31.4117 27.7825 31.7567 28.4751 32.5362 28.8086C33.2901 29.1293 33.4562 29.078 33.9162 28.4367C34.2229 27.9877 34.1079 27.7055 33.5712 27.6414C33.2262 27.5901 32.8812 27.5644 32.5617 27.526C32.5617 26.9231 32.549 26.4101 32.549 25.9098L32.4595 25.8713C32.4595 25.8713 34.0695 23.2034 35.2451 21.5488C35.3345 21.4205 35.4623 21.2538 35.6284 21.0742C36.1906 20.1378 36.7528 19.1887 37.3151 18.2523C37.4173 18.2523 37.5323 18.2395 37.6473 18.2395C37.6473 18.201 37.6473 18.1754 37.6473 18.1369C37.5706 18.1112 37.494 18.0984 37.4301 18.0728C37.4429 18.0471 37.4556 18.0343 37.4684 18.0086C38.5929 17.8932 39.7429 17.7649 40.9056 17.6495C40.9184 17.5982 40.944 17.534 40.9567 17.4827C40.7906 17.3288 40.6373 17.1749 40.484 17.0338C40.6629 16.9184 40.8417 16.8029 41.0334 16.6747C41.0717 16.8286 41.0973 16.9312 41.0845 16.9184C41.4551 16.8414 41.7873 16.7773 42.1706 16.7003C42.3367 16.1359 42.9117 16.5207 43.2312 16.3925C43.3334 16.1616 43.4101 15.982 43.4867 15.7896C43.5506 15.9307 43.6145 16.059 43.7167 16.3155C44.1895 16.2386 44.7134 16.1488 45.3906 16.0333C45.2117 15.7768 45.1095 15.6614 45.0073 15.5459ZM30.5684 12.5701C30.1084 13.763 29.6229 14.9559 29.1501 16.1488C29.0606 16.354 28.9201 16.5464 28.8562 16.7516C28.5495 17.8291 27.8595 18.2652 26.7606 18.5345C24.6779 19.0219 22.6462 19.753 20.589 20.3815C20.244 20.4842 19.899 20.574 19.5667 20.6766C19.5156 20.6253 19.4773 20.5739 19.4262 20.5226C19.5028 20.4842 19.6051 20.4713 19.669 20.4072C22.8762 17.3416 26.2112 14.4557 30.0317 12.1597C30.1979 12.0571 30.4023 12.0443 30.594 11.9801C30.5812 12.1854 30.6323 12.4034 30.5684 12.5701ZM39.0401 17.4186C39.0529 17.3801 39.0784 17.1877 39.1679 17.1492C39.5512 16.9953 39.7429 17.2262 39.8834 17.5469C39.6279 17.5084 39.3979 17.4699 39.0401 17.4186Z" fill="#DA0100"/>
<path d="M78.7534 16.5718C71.8789 15.4816 61.0689 16.0075 54.2073 15.9305C54.3478 15.7253 54.4245 15.5201 54.4884 15.5201C54.8717 15.5329 55.2167 15.4816 55.5617 15.3405H55.4084C55.5234 15.2763 55.6384 15.1994 55.7534 15.1096C56.1623 14.7889 56.8011 14.7633 57.325 14.5709C57.555 14.4811 57.7339 14.2887 57.9384 14.1348C57.9128 14.0963 57.8873 14.0578 57.8617 14.0065C57.9895 14.0193 58.1428 14.0963 58.2195 14.045C58.9095 13.6345 59.5739 13.16 60.43 13.1984C60.5578 13.1984 60.7111 13.1471 60.8261 13.083C62.0145 12.3775 63.2028 11.6721 64.4039 10.9666C64.5061 10.9153 64.685 10.8255 64.7106 10.8512C64.9789 11.1462 65.1706 10.8896 65.3623 10.7742C65.8223 10.4664 66.2567 10.1329 66.7039 9.81221C66.8061 9.73525 66.8956 9.63264 66.9978 9.59416C67.6367 9.37611 68.3011 9.22219 68.9272 8.96566C69.5278 8.70913 70.09 8.34998 70.6778 8.01649C70.895 7.90105 71.0995 7.75996 71.3167 7.63169C71.4445 7.4906 71.5723 7.34951 71.7384 7.25972C71.9811 7.11863 72.2495 7.02884 72.505 6.88775C72.8884 6.6697 73.2334 6.3362 73.655 6.22077C74.5878 5.95141 75.1117 5.19464 75.7506 4.57896C76.3 4.04024 76.2873 3.46305 75.9039 2.78324C75.7761 2.55236 75.6356 2.30865 75.5717 2.05212C75.3928 1.24404 74.8306 0.820763 74.115 0.551405C73.7573 0.410312 73.3739 0.294876 72.9906 0.217916C70.5884 -0.282321 68.2117 -0.000136193 65.8478 0.474448C65.7456 0.500101 65.6306 0.57706 65.5539 0.65402C65.2089 1.02599 64.6339 1.17991 64.1356 1.01316C64.1484 0.884897 64.1611 0.75663 64.1867 0.487272C63.9567 0.654017 63.8289 0.718152 63.7395 0.833591C63.4456 1.16708 63.1261 1.38514 62.6534 1.34666C62.3978 1.33383 62.1295 1.41079 61.8739 1.47492C61.3245 1.60319 60.775 1.75711 60.2256 1.8982C59.6889 2.03929 59.2545 1.8982 58.935 1.42362C58.7689 1.17991 58.5517 0.961856 58.3345 0.743804C58.0661 0.474445 57.7595 0.474447 57.5039 0.769458C57.325 0.987511 57.1078 1.20556 57.0184 1.44927C56.7117 2.283 56.1367 2.69345 55.3061 2.94998C53.5811 3.47587 51.8689 4.09155 50.1567 4.66875C50.1311 4.68157 50.0928 4.66875 50.0289 4.66875C50.0034 4.56613 49.9778 4.46352 49.9267 4.27112C49.3006 4.59178 48.7128 4.8868 48.2911 5.10485C47.6011 6.37468 48.2017 7.22124 48.9684 8.04214C50.5911 7.20842 52.15 6.24642 54.0667 5.74618C53.9006 6.01554 53.8111 6.18229 53.7089 6.34903C52.4567 8.20889 51.2045 10.0816 49.9523 11.9414C48.1634 14.5837 46.4511 17.2645 45.2884 20.2659C44.79 21.5486 45.8506 23.0749 47.2178 23.0749C47.5628 23.0749 47.7545 22.9595 47.78 22.6003C47.8184 21.8692 47.8311 21.1381 47.895 20.407C47.9461 19.7144 48.1506 19.0858 48.7767 18.6369C48.7256 18.5856 48.7 18.56 48.7 18.56L49.1728 18.0469C49.7606 18.3163 50.425 18.3419 51.0895 18.3034C51.69 18.2649 52.2906 18.2393 52.8911 18.188C53.3 18.1495 53.7089 18.0469 54.1178 17.9699C54.2456 17.9443 54.3989 17.893 54.5139 17.9315C55.0378 18.0982 55.5106 18.0341 55.8428 17.8032C56.1367 17.9443 56.3923 18.188 56.5711 18.1239C57.4911 17.8417 58.4239 18.0982 59.3311 17.9956C59.4589 17.9828 59.5995 18.0854 59.7273 18.111C59.8678 18.1367 60.0211 18.1623 60.1745 18.1495C60.9411 18.111 61.7206 17.9571 62.4745 18.0469C63.6628 18.1752 68.8506 18.1239 69.975 17.7262C70.2817 17.6236 70.5756 17.521 70.5245 18.0212C70.7928 18.0212 71.0228 18.0084 71.2656 18.0084C71.4572 18.0084 71.7639 18.111 71.815 18.0212C72.1217 17.5851 72.5306 17.8801 72.8756 17.8417C72.9778 17.8288 73.08 17.9186 73.1822 17.9058C73.6678 17.893 74.1661 17.8673 74.6645 17.8417C74.6645 17.8545 74.6517 17.8673 74.6517 17.8801C75.0478 18.0084 75.4439 18.1367 75.8656 18.2649C75.7122 18.3419 75.5845 18.3932 75.4439 18.4702C75.9295 18.9191 76.4917 19.0217 76.9645 18.8037C76.8623 18.6497 76.7728 18.4958 76.6706 18.3547C76.6067 18.3932 76.5556 18.4189 76.4917 18.4573C76.5428 18.0854 76.3 18.0341 76.0572 17.9571C76.0828 17.9315 76.1084 17.9186 76.1211 17.9058C76.3256 17.6108 76.4917 17.3414 76.7217 17.9186C76.76 18.0084 77.1945 18.0084 77.4117 17.9443C77.5906 17.893 77.7311 17.6877 77.8845 17.5595C78.0123 17.6236 78.1272 17.6877 78.255 17.7647C78.2934 17.5851 78.3189 17.444 78.3445 17.3029C78.3828 17.3029 78.4211 17.2901 78.4595 17.2901C78.4978 17.444 78.5361 17.598 78.5745 17.7519C78.7534 17.7904 78.9578 17.8288 79.1878 17.8673C79.2261 17.6621 79.2645 17.4697 79.3028 17.2645C78.945 17.1747 78.6384 17.1106 78.2295 17.0079C78.4084 16.854 78.5234 16.7642 78.7534 16.5718ZM67.5728 0.487272C67.5728 0.538578 67.5728 0.577059 67.5728 0.628365C67.0617 0.679671 66.5378 0.73098 66.0267 0.795113C66.0267 0.743807 66.0139 0.705326 66.0139 0.65402C66.5378 0.589887 67.0617 0.538578 67.5728 0.487272ZM51.9584 14.0835C51.92 14.045 51.8817 14.0065 51.8561 13.968C52.9295 12.3647 53.99 10.7357 55.1017 9.14523C56.1111 7.683 57.1589 6.24642 58.2323 4.80984C58.3984 4.57896 58.705 4.41221 58.9861 4.3096C59.6889 4.0659 60.4045 3.86067 61.1073 3.65544C61.235 3.61696 61.3884 3.62979 61.5289 3.60414C61.9506 3.56566 62.3723 3.52718 62.7939 3.46305C64.1995 3.25782 65.605 3.05259 67.0106 2.80889C67.5089 2.7191 67.9817 2.5267 68.5056 2.37278C68.5823 2.78324 68.9272 2.62932 69.2467 2.55236C70.8695 2.1419 72.4795 2.32148 74.0895 2.61649C74.1278 2.66779 74.1534 2.7191 74.1917 2.77041C73.885 3.06542 73.6039 3.38609 73.2845 3.65544C72.8373 4.00176 72.4028 4.28395 72.1473 4.86114C71.9811 5.24594 71.47 5.47682 70.9973 5.88727C71.01 5.57943 71.01 5.46399 71.0228 5.29725C70.3584 5.48965 69.7323 5.66922 69.4639 6.23359C69.1828 6.29773 68.9911 6.31055 68.8378 6.38751C67.6622 6.95188 66.4739 7.46495 65.3495 8.10628C64.7106 8.47825 63.9823 8.61934 63.3434 8.97849C62.6534 9.35046 61.9378 9.65829 61.2223 9.97896C60.4939 10.3125 59.7656 10.6203 59.0245 10.941C58.3089 11.2616 57.5934 11.5695 56.8778 11.8901C56.1623 12.2108 55.4467 12.5186 54.7311 12.8393C53.7984 13.2497 52.8784 13.6602 51.9584 14.0835ZM75.8656 17.9315C75.8528 17.9315 75.84 17.9186 75.8272 17.9186C75.6995 17.8545 75.61 17.7006 75.5972 17.6877C75.5717 17.6877 75.5461 17.6877 75.5206 17.6877C75.61 17.598 75.725 17.4825 75.84 17.3799C75.8656 17.4056 75.9039 17.4312 75.9295 17.444C75.9167 17.598 75.9039 17.7391 75.8656 17.9315Z" fill="#DA0100"/>
<path d="M81.3217 17.9572C80.9767 18.0085 80.6573 18.1239 80.4273 17.6878C80.3762 17.5981 79.9673 17.675 79.75 17.7391C79.6734 17.7648 79.5712 18.0598 79.5967 18.0855C79.7628 18.2266 79.9673 18.419 80.1462 18.3933C80.6828 18.3548 81.2195 18.2266 81.7434 18.1368C81.7561 18.0983 81.7689 18.0598 81.7817 18.0213C81.6284 17.9957 81.4623 17.9315 81.3217 17.9572Z" fill="#DA0100"/>
</g>
<defs>
<clipPath id="clip0">
<rect width="102" height="54" fill="white"/>
</clipPath>
</defs>
</svg>
