<svg width="56" height="56" viewBox="0 0 56 56" fill="none" xmlns="http://www.w3.org/2000/svg">
<circle cx="28" cy="28" r="28" fill="#00B960"/>
<path d="M26.16 31.818C26.16 31.1073 26.316 30.4487 26.628 29.842C26.94 29.2353 27.3213 28.7153 27.772 28.282C28.2227 27.8313 28.6733 27.4067 29.124 27.008C29.5747 26.592 29.956 26.15 30.268 25.682C30.58 25.1967 30.736 24.694 30.736 24.174C30.736 23.446 30.4847 22.8913 29.982 22.51C29.4793 22.1113 28.8033 21.912 27.954 21.912C27.1393 21.912 26.4373 22.12 25.848 22.536C25.2587 22.952 24.834 23.5413 24.574 24.304L22 22.848C22.4853 21.6173 23.2653 20.6727 24.34 20.014C25.432 19.338 26.6627 19 28.032 19C29.5747 19 30.9093 19.442 32.036 20.326C33.1627 21.21 33.726 22.432 33.726 23.992C33.726 24.72 33.57 25.4047 33.258 26.046C32.946 26.67 32.5647 27.2073 32.114 27.658C31.6633 28.1087 31.2127 28.5507 30.762 28.984C30.3113 29.4 29.93 29.8507 29.618 30.336C29.306 30.8213 29.15 31.3153 29.15 31.818H26.16ZM29.046 37.278C28.6647 37.6593 28.2053 37.85 27.668 37.85C27.1307 37.85 26.6713 37.6593 26.29 37.278C25.9087 36.8967 25.718 36.4373 25.718 35.9C25.718 35.3627 25.9 34.9033 26.264 34.522C26.6453 34.1407 27.1133 33.95 27.668 33.95C28.2053 33.95 28.6647 34.1407 29.046 34.522C29.4273 34.9033 29.618 35.3627 29.618 35.9C29.618 36.4373 29.4273 36.8967 29.046 37.278Z" fill="white"/>
</svg>
