<svg width="40" height="40" viewBox="0 0 40 40" fill="none" xmlns="http://www.w3.org/2000/svg">
<circle cx="20" cy="20" r="20" fill="#00B960"/>
<path d="M20.0001 16.8758C18.2798 16.8758 16.8759 18.2797 16.8759 20C16.8759 21.7203 18.2798 23.1242 20.0001 23.1242C21.7204 23.1242 23.1243 21.7203 23.1243 20C23.1243 18.2797 21.7204 16.8758 20.0001 16.8758ZM29.3704 20C29.3704 18.7063 29.3821 17.4242 29.3095 16.1328C29.2368 14.6328 28.8946 13.3016 27.7978 12.2047C26.6985 11.1055 25.3696 10.7656 23.8696 10.693C22.5759 10.6203 21.2939 10.632 20.0025 10.632C18.7087 10.632 17.4267 10.6203 16.1353 10.693C14.6353 10.7656 13.304 11.1078 12.2071 12.2047C11.1079 13.3039 10.7681 14.6328 10.6954 16.1328C10.6228 17.4266 10.6345 18.7086 10.6345 20C10.6345 21.2914 10.6228 22.5758 10.6954 23.8672C10.7681 25.3672 11.1103 26.6985 12.2071 27.7953C13.3064 28.8945 14.6353 29.2344 16.1353 29.307C17.429 29.3797 18.711 29.368 20.0025 29.368C21.2962 29.368 22.5782 29.3797 23.8696 29.307C25.3696 29.2344 26.7009 28.8922 27.7978 27.7953C28.897 26.6961 29.2368 25.3672 29.3095 23.8672C29.3845 22.5758 29.3704 21.2938 29.3704 20ZM20.0001 24.807C17.34 24.807 15.1931 22.6602 15.1931 20C15.1931 17.3399 17.34 15.193 20.0001 15.193C22.6603 15.193 24.8071 17.3399 24.8071 20C24.8071 22.6602 22.6603 24.807 20.0001 24.807ZM25.004 16.1188C24.3829 16.1188 23.8814 15.6172 23.8814 14.9961C23.8814 14.375 24.3829 13.8735 25.004 13.8735C25.6251 13.8735 26.1267 14.375 26.1267 14.9961C26.1269 15.1436 26.0979 15.2897 26.0416 15.4259C25.9852 15.5622 25.9026 15.6861 25.7983 15.7904C25.694 15.8946 25.5701 15.9773 25.4339 16.0337C25.2976 16.09 25.1515 16.1189 25.004 16.1188Z" fill="white"/>
</svg>
