<svg width="103" height="54" viewBox="0 0 103 54" fill="none" xmlns="http://www.w3.org/2000/svg">
<g clip-path="url(#clip0)">
<path d="M16.2734 21.4307H25.8059L33.5703 34.0165L41.3347 21.4307H50.8672V53.9387H41.8984V35.2584L33.5831 47.9851H33.3781L25.1012 35.3481V53.9259H16.2734V21.4307Z" fill="white"/>
<path d="M56.7998 21.4307H65.8583V53.9387H56.7998V21.4307Z" fill="white"/>
<path d="M80.5923 37.3967L69.9067 21.418H80.272L86.0376 30.5725L91.8417 21.418H101.976L91.2907 37.3071L102.438 53.9388H92.0723L85.8454 44.1313L79.5673 53.926H69.4326L80.5923 37.3967Z" fill="white"/>
<path d="M45.1787 15.6052C45.0762 15.7589 45.0121 15.8741 44.9352 15.9765C44.8968 15.9637 44.8712 15.9509 44.8327 15.9381C44.8071 15.746 44.7943 15.5668 44.7815 15.4388C44.2305 15.4004 43.718 15.3619 43.1159 15.3107C42.5521 15.3747 41.873 15.4388 41.194 15.5156C41.194 15.554 41.2068 15.6052 41.2068 15.6436C41.3862 15.6564 41.5655 15.682 41.7577 15.7076C41.5655 16.1814 41.2196 16.0277 41.0659 15.8613C40.7199 15.4516 40.3612 15.618 39.964 15.7332C39.9384 15.8869 39.9255 16.0277 39.9127 16.1045C39.7462 15.9893 39.5924 15.8101 39.4387 15.8101C39.2849 15.8101 39.1312 16.0021 39.0543 16.0533C38.9902 16.0533 38.9262 16.0533 38.8621 16.0533C39.4387 15.1059 40.0024 14.1584 40.5918 13.2238C41.0787 12.4299 44.0384 8.49928 44.5893 7.73107C45.2684 6.78361 45.9346 5.83615 46.588 4.88869C46.934 4.37655 46.934 3.86441 46.5112 3.36507C46.2934 3.109 46.114 2.82733 45.8577 2.49443C45.909 2.48163 44.884 2.31519 44.4868 2.98097C44.4868 2.99377 44.474 2.99377 44.4612 3.00657C44.474 3.01938 44.4868 3.03218 44.4996 3.05779C44.2049 3.4675 43.923 3.87721 43.6155 4.28692C41.2324 7.4878 37.9909 12.3147 35.3515 16.7447C35.3259 16.7447 35.313 16.7447 35.2874 16.7447C34.6212 16.6167 34.2624 16.8215 34.0318 17.3977C34.019 17.4233 33.9805 17.4233 33.9421 17.4361C33.404 16.86 33.3527 16.86 33.1605 17.3593C32.9299 17.1928 32.6865 16.924 32.5968 17.5001C32.5712 17.6538 32.2252 17.9611 31.8152 17.8202C32.033 17.6538 32.174 17.5513 32.3149 17.4361C32.2893 17.3977 32.2765 17.3465 32.2509 17.3081C31.969 17.3337 31.6871 17.3721 31.3027 17.4105C31.4309 17.1032 31.5334 16.8984 31.6102 16.6935C32.0587 15.6052 32.5584 14.5297 32.9299 13.4158C33.3399 12.1739 32.8274 10.8167 31.7768 10.0229C31.1618 9.56196 30.5084 9.38271 29.778 9.72841C29.3424 9.94607 28.9068 10.1509 28.4712 10.3686C27.9587 10.6375 27.3437 10.8295 27.4462 11.6361C27.2284 11.5209 27.0874 11.4441 26.9977 11.4057C26.6134 11.6617 26.2802 11.8666 25.9727 12.1227C25.678 12.3531 25.3577 12.5964 25.1527 12.9037C24.9221 13.2494 24.7043 13.531 24.243 13.5439C24.0765 13.5439 23.9099 13.7231 23.6921 13.8511C23.8715 13.992 23.974 14.056 24.0509 14.12C23.7946 14.248 23.5896 14.4401 23.359 14.4785C22.193 14.6834 21.719 15.8997 20.694 16.2966C20.6684 16.3094 20.6684 16.3606 20.6555 16.3862C20.4121 16.6295 20.2071 16.8984 19.9252 17.0776C19.669 17.2441 19.4896 17.3977 19.5665 17.7306C19.6305 17.9995 19.5537 18.1531 19.2334 18.2555C18.8234 18.3836 18.4518 18.614 18.0802 18.8317C17.9905 18.8829 17.9393 19.0494 17.9009 19.1646C17.7727 19.5103 17.6574 19.8688 17.5421 20.2145C17.478 20.1889 17.4268 20.1761 17.3627 20.1505C17.4396 19.92 17.5293 19.6767 17.6062 19.4463C17.5805 19.4335 17.5549 19.4207 17.5293 19.4078C17.3627 19.5999 17.1962 19.792 17.0424 19.9712C16.863 19.984 16.7093 19.984 16.5427 19.9968C16.5043 20.0736 16.4659 20.1633 16.4274 20.2401C16.5812 20.2529 16.7221 20.2529 16.8759 20.2657C16.6837 20.6114 16.5427 20.8546 16.4146 21.0979C16.3762 21.0851 16.3505 21.0723 16.3121 21.0595C16.2993 20.8418 16.2865 20.6242 16.2737 20.4065C16.2224 20.3937 16.184 20.3937 16.1327 20.3809C15.8893 20.8674 15.633 21.3412 15.3896 21.8277C15.3512 21.8021 15.2999 21.7765 15.2615 21.7509C15.3768 21.546 15.4921 21.354 15.6074 21.1491C15.5562 21.1235 15.5177 21.0851 15.4665 21.0595C15.3768 21.1619 15.2871 21.2772 15.1974 21.3796C15.0693 21.5204 14.9668 21.7637 14.8259 21.7765C14.1084 21.8789 14.0315 22.3911 13.9802 22.9416C13.9802 22.9672 13.9418 22.9928 13.9034 23.0312C13.8521 22.916 13.8137 22.8008 13.7752 22.724C13.1602 23.0825 12.6093 23.4794 11.9943 23.7354C9.23961 24.9262 6.47211 26.0913 3.6918 27.2308C2.98711 27.5125 2.29523 27.935 1.46242 27.7941C1.41117 27.7813 1.24461 27.9862 1.24461 28.0758C1.25742 28.3319 1.29586 28.6136 1.41117 28.8184C1.6418 29.2281 1.9493 29.5866 2.19273 29.9835C2.34648 30.2396 2.50023 30.3036 2.78211 30.1884C3.74305 29.7915 4.7168 29.433 5.67773 29.0361C6.1518 28.844 6.60023 28.6136 7.0743 28.3959C5.78023 29.9451 1.6418 35.2458 -0.0878906 36.2829C0.0146094 36.5645 0.104296 36.7694 0.181171 36.987C0.232421 37.1151 0.283672 37.2559 0.360547 37.3583C0.552734 37.6272 0.73211 37.9089 0.975547 38.1138C1.47523 38.5235 1.71867 38.4851 2.1543 38.0113C3.06398 37.0126 6.85648 32.2369 7.81742 31.2895C9.27805 29.8299 10.7899 28.4215 12.3018 27.0131C13.6727 25.7456 15.223 24.7725 17.068 24.35C17.3884 24.2732 17.5165 24.1195 17.4396 23.7994C17.4268 23.761 17.4652 23.7098 17.5165 23.5946C17.5549 23.7738 17.5805 23.8763 17.5934 23.9915C18.6055 23.633 19.6049 23.2617 20.6043 22.9288C21.6934 22.5575 22.7952 22.2374 23.8715 21.8789C24.9477 21.5204 26.024 21.1235 27.1002 20.7522C27.1387 20.8034 27.1899 20.8674 27.2284 20.9187C27.1771 21.0723 27.113 21.2387 27.0618 21.3924C26.5237 23.0568 26.3827 24.7213 27.0362 26.3858C27.3437 27.1796 27.8177 27.8325 28.753 28.191C28.753 27.999 28.7915 27.8582 28.7402 27.7557C28.138 26.501 28.279 25.2078 28.5993 23.9275C28.8684 22.9032 29.2271 21.9045 29.4962 20.8803C29.6115 20.4321 29.8421 20.1633 30.2521 20.0608C31.4052 19.7407 32.5584 19.4463 33.6987 19.1262C33.8012 19.1006 33.9037 19.0494 33.9934 18.9853C33.2759 20.2529 32.6352 21.4564 32.1099 22.5447C32.0587 22.6343 31.9946 22.724 31.9177 22.8136C31.6743 23.441 31.1362 24.9518 31.008 26.2833C30.9952 26.3729 31.008 26.4754 31.008 26.5778C31.0849 26.7827 31.149 26.9491 31.2259 27.1027C31.5462 27.8197 31.8921 28.5111 32.6737 28.844C33.4296 29.1641 33.5962 29.1129 34.0574 28.4727C34.3649 28.0246 34.2496 27.7429 33.7115 27.6789C33.3655 27.6277 33.0196 27.6021 32.6993 27.5637C32.6993 26.9619 32.6865 26.4498 32.6865 25.9504L32.5968 25.912C32.5968 25.912 34.2112 23.2489 35.3899 21.5972C35.4796 21.4692 35.6077 21.3028 35.7743 21.1235C36.3381 20.1889 36.9018 19.2414 37.4655 18.3067C37.568 18.3067 37.6834 18.2939 37.7987 18.2939C37.7987 18.2555 37.7987 18.2299 37.7987 18.1915C37.7218 18.1659 37.6449 18.1531 37.5809 18.1275C37.5937 18.1019 37.6065 18.0891 37.6193 18.0635C38.7468 17.9483 39.8999 17.8202 41.0659 17.705C41.0787 17.6538 41.1043 17.5898 41.1171 17.5385C40.9505 17.3849 40.7968 17.2313 40.643 17.0904C40.8224 16.9752 41.0018 16.86 41.194 16.7319C41.2324 16.8856 41.258 16.988 41.2452 16.9752C41.6168 16.8984 41.9499 16.8343 42.3343 16.7575C42.5009 16.1942 43.0774 16.5783 43.3977 16.4502C43.5002 16.2198 43.5771 16.0405 43.654 15.8485C43.718 15.9893 43.7821 16.1174 43.8846 16.3734C44.3587 16.2966 44.884 16.207 45.563 16.0917C45.3837 15.8357 45.2812 15.7204 45.1787 15.6052ZM30.7005 12.6348C30.2393 13.8255 29.7524 15.0163 29.2784 16.207C29.1887 16.4118 29.0477 16.6039 28.9837 16.8087C28.6762 17.8842 27.9843 18.3196 26.8824 18.5884C24.794 19.075 22.7568 19.8048 20.694 20.4321C20.348 20.5346 20.0021 20.6242 19.669 20.7266C19.6177 20.6754 19.5793 20.6242 19.528 20.573C19.6049 20.5346 19.7074 20.5218 19.7715 20.4577C22.9874 17.3977 26.3315 14.5169 30.1624 12.2251C30.329 12.1227 30.534 12.1099 30.7262 12.0458C30.7134 12.2507 30.7646 12.4684 30.7005 12.6348ZM39.1952 17.4745C39.208 17.4361 39.2337 17.2441 39.3234 17.2057C39.7077 17.052 39.8999 17.2825 40.0409 17.6026C39.7846 17.5641 39.554 17.5257 39.1952 17.4745Z" fill="#DA0100"/>
<path d="M79.0164 16.6293C72.1233 15.541 61.2839 16.0659 54.4036 15.9891C54.5445 15.7843 54.6214 15.5794 54.6855 15.5794C55.0698 15.5922 55.4158 15.541 55.7617 15.4002H55.608C55.7233 15.3361 55.8386 15.2593 55.9539 15.1697C56.3639 14.8496 57.0045 14.824 57.5298 14.6319C57.7605 14.5423 57.9398 14.3503 58.1448 14.1966C58.1192 14.1582 58.0936 14.1198 58.068 14.0686C58.1961 14.0814 58.3498 14.1582 58.4267 14.107C59.1186 13.6973 59.7848 13.2236 60.6433 13.262C60.7714 13.262 60.9252 13.2108 61.0405 13.1467C62.232 12.4425 63.4236 11.7384 64.628 11.0342C64.7305 10.983 64.9098 10.8933 64.9355 10.9189C65.2045 11.2134 65.3967 10.9573 65.5889 10.8421C66.0502 10.5348 66.4858 10.2019 66.9342 9.88185C67.0367 9.80503 67.1264 9.7026 67.2289 9.66419C67.8695 9.44653 68.5358 9.29289 69.1636 9.03682C69.7658 8.78075 70.3295 8.42225 70.9189 8.08936C71.1367 7.97413 71.3417 7.83329 71.5595 7.70526C71.6877 7.56442 71.8158 7.42358 71.9823 7.33396C72.2258 7.19312 72.4948 7.1035 72.7511 6.96266C73.1355 6.745 73.4814 6.41211 73.9042 6.29687C74.8395 6.028 75.3648 5.2726 76.0055 4.65803C76.5564 4.12028 76.5436 3.54413 76.1592 2.86554C76.0311 2.63508 75.8901 2.39181 75.8261 2.13574C75.6467 1.32912 75.083 0.906604 74.3655 0.637731C74.0067 0.496892 73.6223 0.381664 73.238 0.304843C70.8292 -0.194493 68.4461 0.0871837 66.0758 0.560913C65.9733 0.58652 65.858 0.66334 65.7811 0.740161C65.4352 1.11146 64.8586 1.2651 64.3589 1.09866C64.3717 0.970622 64.3845 0.842586 64.4102 0.573713C64.1795 0.740158 64.0514 0.804177 63.9617 0.919409C63.667 1.2523 63.3467 1.46996 62.8727 1.43155C62.6164 1.41874 62.3473 1.49557 62.0911 1.55958C61.5401 1.68762 60.9892 1.84126 60.4383 1.9821C59.9002 2.12294 59.4645 1.9821 59.1442 1.50837C58.9776 1.2651 58.7598 1.04744 58.542 0.829783C58.273 0.56091 57.9655 0.560911 57.7092 0.855391C57.5298 1.07305 57.312 1.29071 57.2223 1.53397C56.9148 2.3662 56.3383 2.77591 55.5055 3.03198C53.7758 3.55693 52.0589 4.17149 50.342 4.74765C50.3164 4.76045 50.278 4.74765 50.2139 4.74765C50.1883 4.64522 50.1626 4.54279 50.1114 4.35074C49.4836 4.67083 48.8942 4.96531 48.4714 5.18297C47.7795 6.45051 48.3817 7.29555 49.1505 8.11497C50.7776 7.28274 52.3408 6.32248 54.2626 5.82314C54.0961 6.09202 54.0064 6.25846 53.9039 6.42491C52.6483 8.28141 51.3926 10.1507 50.137 12.0072C48.3433 14.6447 46.6264 17.3207 45.4605 20.3167C44.9608 21.597 46.0242 23.1207 47.3951 23.1207C47.7411 23.1207 47.9333 23.0054 47.9589 22.6469C47.9973 21.9171 48.0101 21.1873 48.0742 20.4575C48.1255 19.7661 48.3305 19.1388 48.9583 18.6906C48.907 18.6394 48.8814 18.6138 48.8814 18.6138L49.3555 18.1017C49.9448 18.3706 50.6111 18.3962 51.2773 18.3578C51.8795 18.3193 52.4817 18.2937 53.0839 18.2425C53.4939 18.2041 53.9039 18.1017 54.3139 18.0249C54.442 17.9993 54.5958 17.948 54.7111 17.9865C55.2364 18.1529 55.7105 18.0889 56.0436 17.8584C56.3383 17.9993 56.5945 18.2425 56.7739 18.1785C57.6964 17.8968 58.6317 18.1529 59.5414 18.0505C59.6695 18.0377 59.8105 18.1401 59.9386 18.1657C60.0795 18.1913 60.2333 18.2169 60.387 18.2041C61.1558 18.1657 61.9373 18.0121 62.6933 18.1017C63.8848 18.2297 69.0867 18.1785 70.2142 17.7816C70.5217 17.6792 70.8164 17.5767 70.7651 18.0761C71.0342 18.0761 71.2648 18.0633 71.5083 18.0633C71.7005 18.0633 72.008 18.1657 72.0592 18.0761C72.3667 17.6408 72.7767 17.9352 73.1227 17.8968C73.2252 17.884 73.3276 17.9737 73.4301 17.9609C73.917 17.948 74.4167 17.9224 74.9164 17.8968C74.9164 17.9096 74.9036 17.9224 74.9036 17.9352C75.3008 18.0633 75.698 18.1913 76.1208 18.3193C75.967 18.3962 75.8389 18.4474 75.698 18.5242C76.1848 18.9723 76.7486 19.0748 77.2227 18.8571C77.1202 18.7035 77.0305 18.5498 76.928 18.409C76.8639 18.4474 76.8127 18.473 76.7486 18.5114C76.7998 18.1401 76.5564 18.0889 76.313 18.0121C76.3386 17.9865 76.3642 17.9737 76.377 17.9609C76.582 17.6664 76.7486 17.3975 76.9792 17.9737C77.0176 18.0633 77.4533 18.0633 77.6711 17.9993C77.8505 17.948 77.9914 17.7432 78.1452 17.6152C78.2733 17.6792 78.3886 17.7432 78.5167 17.82C78.5551 17.6408 78.5808 17.4999 78.6064 17.3591C78.6448 17.3591 78.6833 17.3463 78.7217 17.3463C78.7602 17.4999 78.7986 17.6536 78.837 17.8072C79.0164 17.8456 79.2214 17.884 79.452 17.9224C79.4905 17.7176 79.5289 17.5255 79.5673 17.3207C79.2086 17.2311 78.9011 17.167 78.4911 17.0646C78.6705 16.911 78.7858 16.8213 79.0164 16.6293ZM67.8055 0.573713C67.8055 0.624927 67.8055 0.663338 67.8055 0.714552C67.293 0.765766 66.7676 0.816982 66.2551 0.881C66.2551 0.829786 66.2423 0.791375 66.2423 0.740161C66.7676 0.676143 67.293 0.624927 67.8055 0.573713ZM52.1486 14.1454C52.1101 14.107 52.0717 14.0686 52.0461 14.0302C53.1223 12.4297 54.1858 10.8037 55.3005 9.21607C56.3126 7.75647 57.3633 6.32248 58.4395 4.88849C58.6061 4.65803 58.9136 4.49158 59.1955 4.38915C59.9001 4.14589 60.6176 3.94103 61.3223 3.73618C61.4505 3.69777 61.6042 3.71057 61.7452 3.68496C62.168 3.64655 62.5908 3.60814 63.0136 3.54412C64.423 3.33927 65.8323 3.13441 67.2417 2.89114C67.7414 2.80152 68.2155 2.60947 68.7408 2.45583C68.8176 2.86554 69.1636 2.7119 69.4839 2.63508C71.1111 2.22536 72.7255 2.40461 74.3398 2.69909C74.3783 2.75031 74.4039 2.80152 74.4423 2.85274C74.1348 3.14722 73.853 3.4673 73.5327 3.73618C73.0842 4.08187 72.6486 4.36355 72.3923 4.9397C72.2258 5.32381 71.7133 5.55427 71.2392 5.96398C71.252 5.6567 71.252 5.54147 71.2648 5.37502C70.5986 5.56707 69.9708 5.74632 69.7017 6.30968C69.4198 6.3737 69.2276 6.3865 69.0739 6.46332C67.8951 7.02667 66.7036 7.53881 65.5761 8.17899C64.9355 8.55029 64.2051 8.69113 63.5645 9.04962C62.8726 9.42093 62.1551 9.72821 61.4376 10.0483C60.7073 10.3812 59.977 10.6885 59.2339 11.0086C58.5164 11.3286 57.7989 11.6359 57.0814 11.956C56.3639 12.2761 55.6464 12.5834 54.9289 12.9035C53.9936 13.3132 53.0711 13.7229 52.1486 14.1454ZM76.1208 17.9865C76.108 17.9865 76.0951 17.9737 76.0823 17.9737C75.9542 17.9096 75.8645 17.756 75.8517 17.7432C75.8261 17.7432 75.8005 17.7432 75.7748 17.7432C75.8645 17.6536 75.9798 17.5383 76.0952 17.4359C76.1208 17.4615 76.1592 17.4871 76.1848 17.4999C76.172 17.6536 76.1592 17.7944 76.1208 17.9865Z" fill="#DA0100"/>
<path d="M81.5921 18.0118C81.2461 18.063 80.9258 18.1783 80.6952 17.7429C80.644 17.6533 80.234 17.7301 80.0162 17.7942C79.9393 17.8198 79.8368 18.1142 79.8624 18.1399C80.029 18.2807 80.234 18.4727 80.4133 18.4471C80.9515 18.4087 81.4896 18.2807 82.0149 18.1911C82.0277 18.1527 82.0405 18.1142 82.0533 18.0758C81.8996 18.0502 81.733 17.9862 81.5921 18.0118Z" fill="#DA0100"/>
</g>
<defs>
<clipPath id="clip0">
<rect width="102.375" height="54" fill="white"/>
</clipPath>
</defs>
</svg>
