<svg width="40" height="40" viewBox="0 0 40 40" fill="none" xmlns="http://www.w3.org/2000/svg">
<circle cx="20" cy="20" r="20" fill="#00B960"/>
<path d="M28.1597 14.8398C25.2797 10.3998 19.3997 9.07976 14.8397 11.8398C10.3997 14.5998 8.95974 20.5998 11.8397 25.0398L12.0797 25.3998L11.1197 28.9998L14.7197 28.0398L15.0797 28.2798C16.6397 29.1198 18.3197 29.5998 19.9997 29.5998C21.7997 29.5998 23.5997 29.1198 25.1597 28.1598C29.5997 25.2798 30.9197 19.3998 28.1597 14.8398ZM25.6397 24.0798C25.1597 24.7998 24.5597 25.2798 23.7197 25.3998C23.2397 25.3998 22.6397 25.6398 20.2397 24.6798C18.1997 23.7198 16.5197 22.1598 15.3197 20.3598C14.5997 19.5198 14.2397 18.4398 14.1197 17.3598C14.1197 16.3998 14.4797 15.5598 15.0797 14.9598C15.3197 14.7198 15.5597 14.5998 15.7997 14.5998H16.3997C16.6397 14.5998 16.8797 14.5998 16.9997 15.0798C17.2397 15.6798 17.8397 17.1198 17.8397 17.2398C17.9597 17.3598 17.9597 17.5998 17.8397 17.7198C17.9597 17.9598 17.8397 18.1998 17.7197 18.3198C17.5997 18.4398 17.4797 18.6798 17.3597 18.7998C17.1197 18.9198 16.9997 19.1598 17.1197 19.3998C17.5997 20.1198 18.1997 20.8398 18.7997 21.4398C19.5197 22.0398 20.2397 22.5198 21.0797 22.8798C21.3197 22.9998 21.5597 22.9998 21.6797 22.7598C21.7997 22.5198 22.3997 21.9198 22.6397 21.6798C22.8797 21.4398 22.9997 21.4398 23.2397 21.5598L25.1597 22.5198C25.3997 22.6398 25.6397 22.7598 25.7597 22.8798C25.8797 23.2398 25.8797 23.7198 25.6397 24.0798Z" fill="white"/>
</svg>
